#!OML:ASF F:\VICON\USERDATA\INSTALL\rory3\rory3.ASF
:FULLY-SPECIFIED
:DEGREES
106
root 0.815871 16.2814 -15.4106 0.515178 -2.10316 7.03011
lowerback 14.0903 0.523567 -10.6138
upperback -4.01954 -1.20531 0.948219
thorax -12.2607 0.290762 7.3813
lowerneck -10.8114 -5.09176 -3.01526
upperneck 19.2295 -7.00032 2.49421
head 7.91537 -3.32077 0.613971
rclavicle 3.35449e-016 4.77083e-015
rhumerus -43.2835 -0.472786 -83.6324
rradius 28.1783
rwrist 6.73571
rhand -8.66964 20.6701
rfingers 7.12502
rthumb 17.2644 -8.58308
lclavicle 3.35449e-016 4.77083e-015
lhumerus -34.1571 2.89287 85.6954
lradius 25.5151
lwrist 1.15457
lhand -5.93714 18.8287
lfingers 7.12502
lthumb 19.8928 47.8306
rfemur -36.2538 3.42944 11.7726
rtibia 58.7355
rfoot -7.80081 -3.29263
rtoes 13.331
lfemur -3.37943 -13.0062 -33.1504
ltibia 22.3773
lfoot -15.6157 9.83715
ltoes 16.4401
107
root 0.80916 16.2702 -15.3076 0.589553 -2.32006 6.83721
lowerback 13.95 0.463139 -10.5406
upperback -4.04183 -1.24557 1.04564
thorax -12.1917 0.267512 7.45542
lowerneck -10.7603 -5.01188 -2.96954
upperneck 19.4028 -6.88264 2.37636
head 7.95408 -3.27235 0.579785
rclavicle -2.10091e-014 1.43125e-014
rhumerus -43.3518 -0.188986 -83.8466
rradius 28.2555
rwrist 6.55765
rhand -8.80894 20.8501
rfingers 7.12502
rthumb 17.1303 -8.41477
lclavicle -2.10091e-014 1.43125e-014
lhumerus -33.9663 3.11628 85.6283
lradius 25.266
lwrist 0.962085
lhand -5.95615 18.1508
lfingers 7.12502
lthumb 19.8745 47.1546
rfemur -36.4341 4.07998 11.9607
rtibia 56.3404
rfoot -7.01033 -3.70953
rtoes 11.8262
lfemur -2.79909 -12.8722 -33.0113
ltibia 21.9763
lfoot -15.8278 10.0348
ltoes 15.8298
108
root 0.803451 16.2632 -15.2045 0.660905 -2.66681 6.82567
lowerback 13.9104 0.487206 -10.6292
upperback -4.09477 -1.22315 1.09094
thorax -12.2339 0.292103 7.55244
lowerneck -10.6256 -4.93533 -2.97467
upperneck 19.5076 -6.78039 2.3597
head 7.96119 -3.22692 0.588315
rclavicle -6.48535e-015 1.59028e-015
rhumerus -43.4221 0.120246 -84.0867
rradius 28.3081
rwrist 6.31512
rhand -8.94664 20.6147
rfingers 7.12502
rthumb 16.9978 -8.66162
lclavicle -6.48535e-015 1.59028e-015
lhumerus -33.868 3.27645 85.6358
lradius 25.2902
lwrist 0.804824
lhand -5.85819 18.039
lfingers 7.12502
lthumb 19.9687 47.033
rfemur -36.6018 4.89105 11.8713
rtibia 53.8562
rfoot -5.94065 -4.60217
rtoes 13.9011
lfemur -2.22617 -12.8495 -33.1035
ltibia 21.6106
lfoot -16.1657 10.3157
ltoes 15.8719
109
root 0.796925 16.2665 -15.0998 0.811719 -2.90291 6.81657
lowerback 13.8377 0.522881 -10.618
upperback -4.13842 -1.16798 1.08147
thorax -12.2532 0.319653 7.52081
lowerneck -10.3147 -4.88477 -2.90788
upperneck 19.0359 -6.7282 2.43305
head 7.74758 -3.19824 0.620227
rclavicle 3.926e-015 -2.38542e-015
rhumerus -43.4332 0.026875 -84.1621
rradius 28.3546
rwrist 6.2124
rhand -8.83673 20.1152
rfingers 7.12502
rthumb 17.1036 -9.15196
lclavicle 3.926e-015 -2.38542e-015
lhumerus -33.6467 2.9841 85.7772
lradius 25.3698
lwrist 1.12089
lhand -5.95406 18.0019
lfingers 7.12502
lthumb 19.8765 47.0055
rfemur -36.7311 5.73569 11.6852
rtibia 51.2934
rfoot -4.813 -5.48951
rtoes 16.9232
lfemur -1.63992 -13.0064 -33.2046
ltibia 21.1098
lfoot -16.4465 10.6811
ltoes 15.4871
110
root 0.792373 16.2673 -14.9961 0.921905 -2.98457 6.81382
lowerback 13.8874 0.564677 -10.5146
upperback -4.15233 -1.108 1.0047
thorax -12.3129 0.340236 7.36195
lowerneck -10.5017 -4.97043 -2.78974
upperneck 18.9847 -6.86238 2.43629
head 7.76389 -3.25143 0.584005
rclavicle -3.75206e-015 -1.74931e-014
rhumerus -43.5019 -0.321251 -84.1092
rradius 28.4236
rwrist 6.43796
rhand -8.5204 20.0719
rfingers 7.12502
rthumb 17.4081 -9.16854
lclavicle -3.75206e-015 -1.74931e-014
lhumerus -33.3864 2.65741 85.8753
lradius 25.5595
lwrist 1.25942
lhand -5.78168 18.1659
lfingers 7.12502
lthumb 20.0422 47.1523
rfemur -36.7463 6.38523 11.4399
rtibia 48.7382
rfoot -6.90899 -4.7758
rtoes 9.7043
lfemur -0.873867 -12.9952 -33.2913
ltibia 20.3605
lfoot -16.555 10.7455
ltoes 15.1793
111
root 0.788383 16.2654 -14.8878 1.06501 -3.13774 6.72125
lowerback 13.8358 0.581451 -10.4331
upperback -4.2 -1.06154 1.04813
thorax -12.3462 0.362002 7.35301
lowerneck -10.7323 -5.04832 -2.76539
upperneck 19.2452 -6.94653 2.27633
head 7.88703 -3.29961 0.509881
rclavicle 2.08724e-015 1.59028e-015
rhumerus -43.6088 -0.286879 -84.0876
rradius 28.4435
rwrist 6.46729
rhand -8.37518 20.4133
rfingers 7.12502
rthumb 17.5478 -8.81472
lclavicle 2.08724e-015 1.59028e-015
lhumerus -33.2438 2.81825 85.8845
lradius 25.5428
lwrist 0.912827
lhand -5.37974 18.2148
lfingers 7.12502
lthumb 20.4285 47.1602
rfemur -36.7514 7.12279 11.235
rtibia 46.1657
rfoot -7.37486 -4.76225
rtoes 8.1526
lfemur -0.0576126 -13.0015 -33.2958
ltibia 19.4731
lfoot -16.5637 10.9521
ltoes 15.0391
112
root 0.778661 16.2621 -14.7783 1.18475 -3.3262 6.80364
lowerback 13.7389 0.590265 -10.5895
upperback -4.25357 -1.06862 1.0663
thorax -12.3496 0.374157 7.46316
lowerneck -10.5802 -4.99183 -2.75214
upperneck 19.1619 -6.85248 2.18367
head 7.82557 -3.26549 0.492376
rclavicle 4.05024e-015 2.38542e-014
rhumerus -43.7032 -0.19887 -84.1367
rradius 28.485
rwrist 6.54796
rhand -8.54069 20.4801
rfingers 7.12502
rthumb 17.3885 -8.76212
lclavicle 4.05024e-015 2.38542e-014
lhumerus -33.1245 2.9707 85.9374
lradius 25.4138
lwrist 0.709802
lhand -5.4551 18.0995
lfingers 7.12502
lthumb 20.3561 47.0527
rfemur -36.7412 8.00115 10.8028
rtibia 43.6105
rfoot -7.48165 -5.23985
rtoes 7.97506
lfemur 0.80526 -12.9559 -33.4747
ltibia 18.543
lfoot -16.6109 11.1943
ltoes 14.3786
113
root 0.766683 16.257 -14.6666 1.2645 -3.32552 6.84283
lowerback 13.7771 0.538328 -10.5996
upperback -4.34735 -1.1564 1.01628
thorax -12.4643 0.342114 7.43567
lowerneck -10.5175 -4.9756 -2.59503
upperneck 19.2741 -6.83562 2.03783
head 7.83971 -3.26017 0.421424
rclavicle -2.13694e-015 -1.11319e-014
rhumerus -43.8844 -0.288091 -84.252
rradius 28.4892
rwrist 6.59457
rhand -8.52506 20.3221
rfingers 7.12502
rthumb 17.4036 -8.91877
lclavicle -2.13694e-015 -1.11319e-014
lhumerus -33.1172 2.81364 85.9576
lradius 25.5397
lwrist 0.903532
lhand -5.69727 18.09
lfingers 7.12502
lthumb 20.1233 47.0678
rfemur -36.5459 9.01197 10.2933
rtibia 41.0548
rfoot -7.98414 -5.83117
rtoes 8.31528
lfemur 1.82956 -12.9856 -33.5862
ltibia 17.466
lfoot -16.5949 11.2478
ltoes 14.1779
114
root 0.751971 16.2626 -14.5504 1.33705 -3.23772 6.70499
lowerback 13.736 0.457192 -10.4593
upperback -4.34916 -1.23085 1.04398
thorax -12.4244 0.294893 7.4029
lowerneck -10.599 -4.89507 -2.6779
upperneck 19.3748 -6.74541 2.20681
head 7.89472 -3.20538 0.495933
rclavicle 6.95746e-015 7.95139e-016
rhumerus -43.9271 -0.212594 -84.4025
rradius 28.3569
rwrist 6.41544
rhand -8.4668 20.7353
rfingers 7.12502
rthumb 17.4596 -8.5006
lclavicle 6.95746e-015 7.95139e-016
lhumerus -32.9973 2.70742 86.0199
lradius 25.7305
lwrist 1.1229
lhand -5.71253 18.346
lfingers 7.12502
lthumb 20.1087 47.3254
rfemur -36.2828 10.2203 9.86641
rtibia 38.5491
rfoot -8.52773 -6.64445
rtoes 8.88965
lfemur 2.98523 -13.1365 -33.5079
ltibia 16.1933
lfoot -16.4479 11.4044
ltoes 13.4147
115
root 0.734424 16.2694 -14.4332 1.44916 -3.05555 6.78958
lowerback 13.5553 0.342752 -10.6445
upperback -4.29641 -1.38811 1.10005
thorax -12.2191 0.222687 7.60192
lowerneck -10.7481 -4.72091 -2.83806
upperneck 19.2775 -6.51104 2.42323
head 7.89628 -3.08373 0.61431
rclavicle 8.92046e-015 3.73715e-014
rhumerus -43.8215 -0.0651006 -84.4564
rradius 28.1704
rwrist 6.25731
rhand -8.75003 20.9159
rfingers 7.12502
rthumb 17.187 -8.34404
lclavicle 8.92046e-015 3.73715e-014
lhumerus -32.8233 2.86263 86.106
lradius 25.8212
lwrist 1.0235
lhand -5.63953 18.3881
lfingers 7.12502
lthumb 20.1788 47.36
rfemur -36.0954 11.6106 9.06637
rtibia 36.2026
rfoot -9.206 -7.72159
rtoes 9.32848
lfemur 4.15889 -13.1748 -33.604
ltibia 14.7412
lfoot -16.0571 11.4732
ltoes 11.7627
116
root 0.718661 16.2691 -14.3182 1.56119 -2.79693 6.87588
lowerback 13.5513 0.223164 -10.6884
upperback -4.32633 -1.56263 1.06341
thorax -12.2143 0.14273 7.62585
lowerneck -10.8838 -4.71937 -2.68443
upperneck 19.1442 -6.52068 2.37846
head 7.86973 -3.08104 0.571625
rclavicle 1.5617e-014 -4.77083e-015
rhumerus -43.8367 -0.113126 -84.5232
rradius 28.1022
rwrist 6.18158
rhand -8.993 20.8172
rfingers 7.12502
rthumb 16.9532 -8.46295
lclavicle 1.5617e-014 -4.77083e-015
lhumerus -32.6571 2.97259 86.0859
lradius 25.6822
lwrist 0.694574
lhand -5.71831 18.0326
lfingers 7.12502
lthumb 20.1031 47.0125
rfemur -35.9303 13.1027 8.14778
rtibia 34.0303
rfoot -10.0308 -8.93415
rtoes 9.08705
lfemur 5.4865 -13.2711 -33.7136
ltibia 13.0593
lfoot -15.6357 11.4422
ltoes 10.7755
